<?xml version="1.0" encoding="UTF-8"?>
<svg id="Laag_1" xmlns="http://www.w3.org/2000/svg" version="1.1" viewBox="0 0 545.6 302.6">
  <!-- Generator: Adobe Illustrator 30.3.0, SVG Export Plug-In . SVG Version: 2.1.3 Build 182)  -->
  <g>
    <path d="M62.9,139.8l18.2-22-3.2-50.5-23.8-6.4,15.8-7,.2-35-15.5-15.9L.7,4.2l-.3,91.7h.1c0,0-.5,43.9-.5,43.9h62.9ZM55.7,117.7l-35.2,1.2.9-32.3,30.4.7,3.9,30.3ZM21.9,23.4l23.6.8v19.8l-24.1,1.7.4-22.4Z"/>
    <path d="M131.8,7.5l-49.4,134.9,25.7-2.7,12.4-28,39.4.4,8.1,28.8,18.5-2.2L152.1,7l-20.3.6ZM127.2,89l11-37.3,7.2-1.5,7,39.4-25.2-.6Z"/>
    <polygon points="260.5 0 260.5 106.3 232.4 2.2 198.5 3.7 194.1 140.2 209.6 140.2 213.3 42.8 255.3 142.4 273.8 142.4 277.5 0 260.5 0"/>
    <polygon points="362.5 119.4 318.2 6.4 287.2 9.4 284.2 143.7 315.2 145.9 315.2 41.9 352.9 147.4 386.8 147.4 390.5 10.1 364 9.4 362.5 119.4"/>
    <polygon points="466.8 11.6 429.9 59.6 429.1 11.6 402.6 11.6 402.6 142.2 426.9 141.5 426.9 95 500 13.8 466.8 11.6"/>
    <polygon points="62.5 275.7 33.1 273.6 30.9 268.3 29.6 188.6 43.2 175.2 60.2 175.2 65 195.8 84.2 195.1 85 167.1 65.8 150.1 27.4 150.1 6.7 178.1 6.7 278.5 22.4 297.7 76 302.2 87.2 276.3 89.4 246.8 68.9 247.1 62.5 275.7"/>
    <polygon points="190.3 299.1 264.2 300.1 264.2 282.4 213 282.8 214.7 247.4 243.4 250.3 244.2 221.5 213.9 214.9 213.9 182.4 264.8 183.9 264.8 157.3 198.4 155.1 190.3 299.1"/>
    <polygon points="276.4 298.9 301.7 298.1 298.6 233.7 322.2 233.7 322.2 205.7 297.8 207.9 297.8 186.5 346.6 186.5 346.6 155.5 279.4 155.5 276.4 298.9"/>
    <polygon points="154.7 221.3 115.6 219.8 115.6 151.2 99.3 151.2 97.8 301.8 120 300.3 115.6 241.2 159 245.7 156.9 298.1 177.5 298.1 179.3 153.4 155.4 153.4 154.7 221.3"/>
  </g>
  <g>
    <polygon points="508 236.2 498 200.4 483.3 176.9 453.9 147.5 432.2 131.6 422.3 148.4 406.9 174.5 386.9 294.4 423.4 302.6 463.9 287.3 499.8 255.6 508 236.2" style="fill: #64194e;"/>
    <polygon points="432.2 131.6 449.8 148.6 463.9 189.2 459.8 231.5 446.3 261.5 415.1 290.9 386.9 294.4 369.9 287.3 365.2 271.5 357 225 378.1 170.4 402.8 143.4 432.2 131.6" style="fill: #845577;"/>
    <polygon points="443.9 170.4 449.8 189.8 450.4 232.7 435.7 262.7 401 282.6 379.9 278.5 369.9 256.8 369.3 228 384 188 406.3 156.3 428.1 148.6 443.9 170.4" style="fill: #966191;"/>
    <polygon points="426.3 168 439.2 186.8 441 224.5 432.2 250.9 421 265 396.9 274.4 380.5 268 375.2 242.1 388.7 201.5 402.2 178.6 426.3 168" style="fill: #845577;"/>
    <polygon points="423.1 179.3 427.8 181.7 432.4 189.7 434.6 214 431.3 239.4 418.7 256.3 405.5 265.8 396.4 266 387.3 259.3 385.3 243.5 388.8 221.6 400.1 200.3 413.3 184.3 423.1 179.3" style="fill: #966191;"/>
    <polygon points="421.1 188.4 417.2 190.1 406.1 204.4 393.6 233.7 392 250.8 397.3 258.2 404.2 257.1 415.5 248.2 425 230 426.8 209.2 421.1 188.4" style="fill: #845577;"/>
    <polygon points="415.5 211.2 417.6 221.2 417.2 234.1 411.1 246.3 403.8 248.7 399.9 239.1 402 225.3 409 213.5 415.5 211.2" style="fill: #966191;"/>
    <polygon points="413.1 223.7 411.4 232.6 406.6 238.7 404.4 236.3 408.3 226.1 413.1 223.7" style="fill: #845577;"/>
    <polygon points="539.8 225.1 503.2 227.3 501.5 245.8 526.9 262.9 528.8 257.9 510.6 245.8 541.8 258.8 544.2 251.6 508.7 239.5 542.3 247.2 545.6 239.7 513.4 233.9 539 232.3 539.8 225.1" style="fill: #547543;"/>
  </g>
</svg>